<svg xmlns="http://www.w3.org/2000/svg" viewBox="0 0 18 18"><g><path d="M2.75,11.104v3.896c0,.138,.112,.25,.25,.25h3.896c.223,0,.334-.269,.177-.427l-3.896-3.896c-.157-.157-.427-.046-.427,.177Z" fill="none" stroke="currentColor" stroke-linecap="round" stroke-linejoin="round" stroke-width="1.5" /><line x1="5.125" y1="12.875" x2="7.25" y2="10.75" fill="none" stroke="currentColor" stroke-linecap="round" stroke-linejoin="round" stroke-width="1.5" /><path d="M11.104,2.75h3.896c.138,0,.25,.112,.25,.25v3.896c0,.223-.269,.334-.427,.177l-3.896-3.896c-.157-.157-.046-.427,.177-.427Z" fill="none" stroke="currentColor" stroke-linecap="round" stroke-linejoin="round" stroke-width="1.5" /><line x1="12.875" y1="5.125" x2="10.75" y2="7.25" fill="none" stroke="currentColor" stroke-linecap="round" stroke-linejoin="round" stroke-width="1.5" /><path d="M15.25,11.104v3.896c0,.138-.112,.25-.25,.25h-3.896c-.223,0-.334-.269-.177-.427l3.896-3.896c.157-.157,.427-.046,.427,.177Z" fill="none" stroke="currentColor" stroke-linecap="round" stroke-linejoin="round" stroke-width="1.5" /><line x1="12.875" y1="12.875" x2="10.75" y2="10.75" fill="none" stroke="currentColor" stroke-linecap="round" stroke-linejoin="round" stroke-width="1.5" /><path d="M6.896,2.75H3c-.138,0-.25,.112-.25,.25v3.896c0,.223,.269,.334,.427,.177l3.896-3.896c.157-.157,.046-.427-.177-.427Z" fill="none" stroke="currentColor" stroke-linecap="round" stroke-linejoin="round" stroke-width="1.5" /><line x1="5.125" y1="5.125" x2="7.25" y2="7.25" fill="none" stroke="currentColor" stroke-linecap="round" stroke-linejoin="round" stroke-width="1.5" /></g></svg>
