<svg xmlns="http://www.w3.org/2000/svg" viewBox="0 0 18 18"><g><path d="M9 9.5C9.27614 9.5 9.5 9.27614 9.5 9C9.5 8.72386 9.27614 8.5 9 8.5C8.72386 8.5 8.5 8.72386 8.5 9C8.5 9.27614 8.72386 9.5 9 9.5Z" fill="none" stroke="currentColor" stroke-width="1.5" stroke-linecap="round" stroke-linejoin="round" /> <path d="M3.25 9.5C3.52614 9.5 3.75 9.27614 3.75 9C3.75 8.72386 3.52614 8.5 3.25 8.5C2.97386 8.5 2.75 8.72386 2.75 9C2.75 9.27614 2.97386 9.5 3.25 9.5Z" fill="none" stroke="currentColor" stroke-width="1.5" stroke-linecap="round" stroke-linejoin="round" /> <path d="M14.75 9.5C15.0261 9.5 15.25 9.27614 15.25 9C15.25 8.72386 15.0261 8.5 14.75 8.5C14.4739 8.5 14.25 8.72386 14.25 9C14.25 9.27614 14.4739 9.5 14.75 9.5Z" fill="none" stroke="currentColor" stroke-width="1.5" stroke-linecap="round" stroke-linejoin="round" /></g></svg>
