<svg width="840" height="238" viewBox="0 0 840 238" fill="none" xmlns="http://www.w3.org/2000/svg">
<path d="M88.2861 11.9971C151.963 11.9971 182.417 38.2983 182.417 76.1353C182.417 116.125 148.733 141.812 84.2871 141.812H62.2925V233.328H0V11.9971H88.2861ZM75.0586 136.89C99.668 136.89 117.048 120.894 117.048 75.8276C117.048 41.8359 103.206 16.9189 70.2905 16.9189H62.2925V136.89H75.0586ZM305.464 73.8281C314.692 73.8281 323.613 76.1353 331.765 80.9033L329.304 85.6714C322.229 80.9033 314.231 78.9038 306.233 78.9038C285.315 78.9038 271.78 89.3628 261.167 102.59V233.328H202.566V76.4429H210.564L250.862 108.743L251.169 108.435C264.243 87.0557 284.7 73.8281 305.464 73.8281ZM427.742 226.252C450.198 226.252 466.348 210.564 476.807 196.106L480.498 198.875C466.501 220.1 444.199 236.865 406.516 236.865C357.451 236.865 328.228 203.489 328.228 157.192C328.228 107.358 361.912 72.5977 411.899 72.5977C457.888 72.5977 484.497 104.282 484.497 142.888H387.136V145.042C387.136 184.417 393.75 226.252 427.742 226.252ZM408.977 77.8271C394.211 77.8271 387.905 99.9756 387.136 137.812H428.049C428.049 97.9761 422.974 77.8271 408.977 77.8271ZM562.017 237.019C540.945 237.019 515.874 231.021 500.801 220.562L503.108 215.947C520.488 228.713 549.25 232.097 560.632 232.097C582.012 232.097 589.395 219.946 589.395 208.411C589.395 195.183 576.475 187.185 559.863 179.033L552.942 175.803C528.948 164.421 503.262 150.886 503.262 120.894C503.262 87.9785 531.562 72.4438 573.86 72.4438C592.932 72.4438 613.389 78.2886 627.231 87.8247L624.771 92.2852C611.543 82.9028 590.01 77.5195 574.014 77.5195C558.633 77.5195 550.173 87.9785 550.173 99.3604C550.173 114.895 567.4 122.585 587.856 132.122L594.163 135.198C615.696 145.811 635.691 159.653 635.691 187.185C635.691 219.177 603.237 237.019 562.017 237.019ZM773.965 117.356L839.487 231.943V233.328H768.428L732.437 161.345L718.594 175.803V233.328H659.993V0H718.594V168.728L805.496 76.4429H811.956L773.965 117.356Z" fill="white"/>
</svg>
