<svg xmlns="http://www.w3.org/2000/svg" width="827" height="365" fill="none" viewBox="0 0 827 365"><path fill="#fff" d="M0 285.4V15.92h183.52v58.61H65.36v53.56h82.96v54.5H65.36v102.8zM312.56 88.2c12.36 0 20.97 3.94 29.03 8.62l-11.05 58.05c-14.98-9.17-24.35-10.49-34.65-10.49-9.74 0-21.16 4.5-32.02 14.05V285.4h-63.48V92.7h37.64l13.1 36.52c14.99-21.35 38.77-41.02 61.43-41.02m78.85-23.03c-20.23 0-36.33-13.67-36.33-32.77 0-18.35 16.1-32.4 36.33-32.4 20.41 0 36.89 14.05 36.89 32.4 0 19.1-16.3 32.77-36.9 32.77M359.76 285.4V92.7h63.67v192.7zm168.74 4.5c-30.53 0-61.8-9.18-81.47-19.48l15.92-43.64c22.85 8.8 48.88 17.04 64.05 17.04 13.67 0 21.16-5.61 21.16-13.3 0-8.6-8.24-14.79-26.97-21.34l-15.73-4.87c-30.52-9.92-54.3-27.72-54.3-59.93 0-36.89 33.51-56.36 77.9-56.36 26.22 0 48.13 4.68 68.54 12.92l-13.67 45.7c-17.8-6.56-40.26-12.55-52.06-12.55-11.61 0-19.85 4.49-19.85 11.8 0 6.74 5.24 12.91 22.28 18.35l11.05 3.55c34.46 10.3 63.67 25.85 63.67 62.74 0 38.01-36.33 59.36-80.52 59.36M750.23 88.2c40.45 0 76.6 30.15 76.6 92.89 0 72.85-37.09 108.8-92.14 108.8-15.36 0-29.03-3-39.9-7.11v81.83h-63.47l.18-206.93V92.7h37.64l11.43 31.83c20.78-21.16 48.31-36.33 69.66-36.33M725.7 239.52c27.9 0 38.58-24.16 38.58-52.25 0-31.84-11.99-46.63-32.96-46.63-12.74 0-24.54 4.68-36.52 14.05v74.53a53 53 0 0 0 30.9 10.3"/></svg>