<svg width="599" height="293" viewBox="0 0 599 293" fill="none" xmlns="http://www.w3.org/2000/svg">
<path d="M22.9958 55.1249C22.9958 22.0499 44.4158 -5.48363e-05 77.4908 -5.48363e-05H95.1308V36.2249H84.1058C71.5058 36.2249 65.5208 42.8399 65.5208 55.7549V66.1499H98.9108V102.375H65.5208V229.95H22.9958V102.375H0.000781361V66.1499H22.9958V55.1249ZM113.155 229.95V66.1499H154.42V97.3349C160.09 73.7099 176.785 60.795 205.135 62.3699V102.375H199.15C174.58 102.375 155.68 118.755 155.68 146.16V229.95H113.155ZM219.283 229.95V66.1499H261.808V229.95H219.283ZM214.873 27.4049C214.873 13.8599 225.898 2.51993 240.388 2.51993C255.193 2.51993 265.903 13.8599 265.903 27.4049C265.903 41.5799 255.193 52.6049 240.388 52.6049C225.898 52.6049 214.873 41.2649 214.873 27.4049ZM343.028 234.045C315.308 234.045 292.943 224.595 274.988 205.38L303.653 179.235C315.623 192.78 328.223 199.395 342.083 199.395C356.573 199.395 364.763 192.15 364.763 182.385C364.763 173.88 360.668 169.155 334.838 163.17C291.053 152.775 284.438 132.93 284.438 112.14C284.438 83.4749 307.118 62.0549 345.548 62.0549C372.008 62.0549 389.648 68.6699 406.343 90.4049L375.473 114.03C367.598 101.43 357.518 96.3899 346.493 96.3899C334.838 96.3899 326.018 100.8 326.018 110.88C326.018 116.55 328.538 121.59 348.068 126.63C395.633 138.915 406.658 156.555 406.658 181.125C406.658 211.365 379.253 234.045 343.028 234.045ZM423.233 292.95V66.1499H465.128V92.6099C473.948 74.6549 488.753 62.6849 517.418 62.6849C562.463 62.6849 598.373 101.43 598.373 148.68C598.373 195.93 562.463 234.045 517.418 234.045C489.383 234.045 474.578 222.705 465.758 205.695V292.95H423.233ZM464.498 148.68C464.498 174.195 482.453 195.615 510.488 195.615C537.578 195.615 555.848 173.25 555.848 148.365C555.848 122.85 537.578 101.115 510.488 101.115C482.453 101.115 464.498 123.165 464.498 148.68Z" fill="#F4F4F5"/>
</svg>
