<svg width="658" height="298" viewBox="0 0 658 298" fill="none" xmlns="http://www.w3.org/2000/svg">
<path d="M19.5337 233.02V89.3628H0V77.2119H19.3799C11.5356 65.9839 7.69043 54.7559 7.69043 44.1431C7.69043 17.0728 29.9927 0 68.4448 0C83.2104 0 98.5913 3.69141 110.435 12.1509L104.744 22.6099C93.9771 15.8423 81.98 13.689 71.521 13.689C55.6787 13.689 45.6812 23.8403 45.6812 38.7598C45.6812 48.7573 49.5264 61.5234 61.2158 77.2119H97.9761V89.3628H61.5234V233.02H19.5337ZM207.482 73.9819C217.172 73.9819 225.631 76.9043 232.245 79.9805L228.553 94.7461C220.402 91.0547 212.404 89.209 204.252 89.209C190.563 89.209 178.873 97.9761 168.722 111.204V233.02H126.732V77.2119H139.806L160.724 107.358C173.029 87.3633 189.486 73.9819 207.482 73.9819ZM285.303 51.3721C271.152 51.3721 260.078 41.6821 260.078 28.3008C260.078 15.3809 271.152 5.3833 285.303 5.3833C299.607 5.3833 310.989 15.3809 310.989 28.3008C310.989 41.6821 299.761 51.3721 285.303 51.3721ZM264.385 233.02V77.2119H306.528V233.02H264.385ZM402.345 236.711C382.042 236.711 358.971 230.559 342.667 220.254L347.897 207.642C366.046 218.716 388.81 223.484 401.73 223.484C422.494 223.484 431.107 212.256 431.107 200.259C431.107 186.877 419.571 178.879 400.345 169.958L391.886 166.882C367.738 156.423 346.512 142.581 346.512 117.356C346.512 88.1323 371.891 73.5205 408.19 73.5205C427.569 73.5205 445.565 78.9038 459.562 86.9019L454.947 99.668C442.027 92.1313 423.57 86.748 408.959 86.748C392.347 86.748 382.504 96.2842 382.504 108.127C382.504 120.432 395.116 128.584 414.496 137.197L421.109 139.966C446.949 150.886 466.637 163.96 466.637 190.415C466.637 219.023 440.028 236.711 402.345 236.711ZM593.83 73.5205C630.898 73.5205 657.353 102.129 657.353 149.81C657.353 202.874 626.13 236.711 576.758 236.711C565.068 236.711 553.84 233.789 544.765 229.021V297.312H502.776V77.2119H515.849L535.691 105.667C552.456 85.5176 575.22 73.5205 593.83 73.5205ZM572.912 222.1C599.521 222.1 614.595 195.645 614.595 157.5C614.595 116.433 600.444 95.0537 576.296 95.0537C565.683 95.0537 554.148 101.514 544.765 110.281V209.026C551.687 216.562 561.992 222.1 572.912 222.1Z" fill="white"/>
</svg>
