<svg xmlns="http://www.w3.org/2000/svg" viewBox="0 0 1650 1800" fill="currentColor"><path d="M560.9 871.3c81.05 0 146.76-65.71 146.76-146.76 0-81.06-65.7-146.76-146.76-146.76s-146.76 65.7-146.76 146.76 65.7 146.75 146.76 146.75"/><path d="m1487.35 1466.57-502.9 290.34c-99.33 57.35-222.78 57.45-322.2.3l-500.23-287.36C61.94 1412.26-.17 1304.68 0 1189.22l1.15-576.83c.31-114.74 62.12-221.6 161.46-278.95l502.9-290.35c99.33-57.35 222.78-57.45 322.2-.3l500.13 287.42c100.08 57.59 162.19 165.16 162.02 280.63l-1.15 576.83c-.32 114.74-62.02 221.54-161.36 278.9M1317.34 854.8l155.72 155.72.72-400.1a146.7 146.7 0 0 0-73.61-127.5L900.04 195.48a147.3 147.3 0 0 0-146.48.11l-502.9 290.35c-45.14 26.06-73.2 74.67-73.44 126.86l-1.04 576.77a146.7 146.7 0 0 0 73.61 127.51l94.48 54.29 516.6-516.7c125.97-125.86 330.73-125.86 456.59 0z"/></svg>