<svg xmlns="http://www.w3.org/2000/svg" viewBox="0 0 18 18"><g><path d="M9 13.25C11.3472 13.25 13.25 11.3472 13.25 9C13.25 6.65279 11.3472 4.75 9 4.75C6.65279 4.75 4.75 6.65279 4.75 9C4.75 11.3472 6.65279 13.25 9 13.25Z" fill="currentColor" fill-opacity="0.3"></path> <path d="M9 1.25V2.25" stroke="currentColor" stroke-width="1.5" stroke-linecap="round" stroke-linejoin="round" fill="none"></path> <path d="M14.48 3.52L13.773 4.227" stroke="currentColor" stroke-width="1.5" stroke-linecap="round" stroke-linejoin="round" fill="none"></path> <path d="M16.75 9H15.75" stroke="currentColor" stroke-width="1.5" stroke-linecap="round" stroke-linejoin="round" fill="none"></path> <path d="M14.48 14.48L13.773 13.773" stroke="currentColor" stroke-width="1.5" stroke-linecap="round" stroke-linejoin="round" fill="none"></path> <path d="M9 16.75V15.75" stroke="currentColor" stroke-width="1.5" stroke-linecap="round" stroke-linejoin="round" fill="none"></path> <path d="M3.52 14.48L4.227 13.773" stroke="currentColor" stroke-width="1.5" stroke-linecap="round" stroke-linejoin="round" fill="none"></path> <path d="M1.25 9H2.25" stroke="currentColor" stroke-width="1.5" stroke-linecap="round" stroke-linejoin="round" fill="none"></path> <path d="M3.52 3.52L4.227 4.227" stroke="currentColor" stroke-width="1.5" stroke-linecap="round" stroke-linejoin="round" fill="none"></path> <path d="M9 13.25C11.3472 13.25 13.25 11.3472 13.25 9C13.25 6.65279 11.3472 4.75 9 4.75C6.65279 4.75 4.75 6.65279 4.75 9C4.75 11.3472 6.65279 13.25 9 13.25Z" stroke="currentColor" stroke-width="1.5" stroke-linecap="round" stroke-linejoin="round" fill="none"></path></g></svg>
