<svg xmlns="http://www.w3.org/2000/svg" viewBox="0 0 18 18"><g><path d="M13 11.75C9.548 11.75 6.75 8.952 6.75 5.5C6.75 4.148 7.183 2.901 7.912 1.878C4.548 2.506 2 5.453 2 9C2 13.004 5.246 16.25 9.25 16.25C12.622 16.25 15.448 13.944 16.259 10.826C15.309 11.409 14.196 11.75 13 11.75Z" fill="currentColor" fill-opacity="0.3"></path> <path d="M13 11.75C9.548 11.75 6.75 8.952 6.75 5.5C6.75 4.148 7.183 2.901 7.912 1.878C4.548 2.506 2 5.453 2 9C2 13.004 5.246 16.25 9.25 16.25C12.622 16.25 15.448 13.944 16.259 10.826C15.309 11.409 14.196 11.75 13 11.75Z" stroke="currentColor" stroke-width="1.5" stroke-linecap="round" stroke-linejoin="round" fill="none"></path></g></svg>
